<?xml version="1.0" standalone="no"?>
<!DOCTYPE svg PUBLIC "-//W3C//DTD SVG 20010904//EN"
 "http://www.w3.org/TR/2001/REC-SVG-20010904/DTD/svg10.dtd">
<svg version="1.0" xmlns="http://www.w3.org/2000/svg"
 width="892.000000pt" height="358.000000pt" viewBox="0 0 892.000000 358.000000"
 preserveAspectRatio="xMidYMid meet">

<g transform="translate(0.000000,358.000000) scale(0.100000,-0.100000)"
fill="#000000" stroke="none">
<path d="M2410 2121 c0 -1448 0 -1459 21 -1527 36 -120 78 -192 166 -285 86
-89 155 -135 280 -182 57 -21 72 -21 646 -25 l587 -3 0 355 0 356 -495 0 -495
0 0 630 0 630 495 0 494 0 3 328 c2 180 2 339 0 355 l-3 27 -495 0 -494 0 0
400 0 400 -355 0 -355 0 0 -1459z"/>
<path d="M6373 3383 c-21 -25 -54 -65 -74 -87 -19 -23 -107 -130 -195 -239
-87 -109 -177 -220 -199 -247 -22 -26 -103 -126 -180 -222 -76 -95 -165 -203
-197 -239 -32 -37 -86 -103 -120 -147 -60 -75 -123 -153 -230 -281 -26 -31
-73 -89 -104 -129 -32 -41 -78 -97 -103 -125 -26 -29 -60 -70 -76 -92 -16 -22
-46 -60 -67 -85 -20 -25 -87 -106 -148 -180 -61 -74 -135 -164 -165 -200 -29
-36 -94 -117 -144 -180 l-91 -115 0 -357 0 -358 129 0 130 0 44 53 c94 109
205 244 270 326 65 83 228 283 387 475 41 50 129 158 195 239 66 82 141 174
167 205 26 31 83 102 127 157 77 97 192 237 309 378 31 38 89 108 127 157 39
48 114 141 167 206 53 66 133 164 178 218 44 55 98 119 120 142 l40 44 0 365
0 365 -130 0 -129 0 -38 -47z"/>
<path d="M1846 2830 c-65 -38 -119 -70 -121 -70 -3 0 -140 -79 -360 -208 -60
-35 -198 -115 -305 -177 -107 -62 -247 -143 -310 -180 -63 -37 -198 -115 -300
-174 -102 -59 -242 -141 -313 -181 l-127 -74 0 -302 0 -303 58 -32 c31 -18
104 -60 162 -94 217 -127 296 -173 331 -193 36 -20 212 -122 414 -240 61 -35
198 -115 305 -177 337 -195 444 -257 482 -282 21 -12 40 -23 42 -23 3 0 42
-22 88 -50 45 -27 86 -46 90 -42 5 5 7 190 6 412 -3 346 -5 404 -18 411 -8 5
-68 40 -133 79 -65 38 -120 70 -122 70 -2 0 -44 24 -93 54 -49 29 -113 67
-143 84 -30 17 -112 64 -184 106 -71 42 -183 106 -247 143 -65 38 -118 73
-118 80 0 13 5 17 120 82 41 24 165 95 275 159 110 63 216 124 235 135 41 22
193 111 298 174 40 24 76 43 80 43 5 0 18 9 30 20 22 21 22 22 22 420 0 325
-2 400 -13 400 -8 0 -66 -31 -131 -70z"/>
<path d="M6936 2883 c-3 -4 -6 -187 -6 -407 l0 -401 213 -127 c116 -69 244
-144 282 -166 197 -111 337 -189 395 -220 96 -52 145 -86 145 -102 0 -21 -30
-40 -495 -307 -91 -52 -201 -116 -245 -142 -44 -26 -128 -76 -187 -110 l-108
-63 0 -409 c0 -271 3 -409 10 -409 9 0 142 73 215 117 11 7 27 16 35 20 8 4
58 32 110 63 52 31 156 92 230 135 74 43 168 98 208 122 40 24 75 43 77 43 2
0 48 26 102 58 54 32 159 94 233 137 74 43 168 98 208 122 40 24 75 43 78 43
2 0 21 11 42 23 39 25 276 163 352 205 25 14 53 30 63 36 16 10 17 36 17 312
l0 302 -102 60 c-57 33 -191 111 -298 172 -224 129 -685 394 -810 467 -47 27
-105 61 -130 75 -80 44 -314 180 -352 205 -21 12 -40 23 -43 23 -2 0 -34 18
-69 40 -91 55 -162 90 -170 83z"/>
</g>
</svg>
